<?xml version="1.0" encoding="UTF-8"?>
<!-- Generated by Pixelmator Pro 3.3.2 -->
<svg width="1288" height="542" viewBox="0 0 1288 542" xmlns="http://www.w3.org/2000/svg" xmlns:xlink="http://www.w3.org/1999/xlink">
    <path id="path1" fill="#000000" fill-rule="evenodd" stroke="none" d="M 614 508 C 604.000366 508.087921 596 500 596 492 C 596 482 605.838196 476.280212 618 470 C 627.478027 465.105652 645.469055 455.456421 658 444 C 665.344055 437.285706 682 410 682 388 C 682 368 676 348 676 348 C 676 348 631.894592 252.374023 630 248 C 627.978638 243.333374 620 229 620 221 C 620 211 631 197 645 197 C 664 197 668.055847 201.012421 673 212 C 688.199585 245.778625 708 292 708 292 C 708 292 711 296 715 296 C 719 296 724 290 724 290 C 724 290 748.143982 218.26651 752 210 C 755.856018 201.73349 762.578979 195.55304 772 196 C 779.91864 196.375671 784.316162 205.352936 782 218 C 778.937744 234.720856 751.151917 327.439758 742 364 C 732.848083 400.560242 708.371094 451.123779 692 466 C 665.734497 489.867188 626.484619 507.890228 614 508 Z M 478 417 C 434.000092 417 406 386.999908 406 355 C 406 315.772949 427.029694 303.764343 434 299 C 441.171021 294.09845 462.587769 285.379395 474 283 C 480.58667 281.626709 524 271 524 271 L 524 247 C 524 247 522.252014 237.381683 516 235 C 509.648163 232.580292 442 213 442 213 C 442 213 434 211 434 205 C 434 199 442 199 442 199 C 442 199 511.333405 199 548 199 C 564 199 578 217.000092 578 233 C 578 290.33313 578 385.000061 578 405 C 578 411 576 417 570 417 C 558 417 532 385 532 385 C 532 385 511.999908 417 478 417 Z M 888 417 C 844.000122 417 816 386.999908 816 355 C 816 315.772949 837.029663 303.764343 844 299 C 851.171021 294.09845 872.587769 285.379395 884 283 C 890.58667 281.626709 934 271 934 271 L 934 247 C 934 247 932.252014 237.381683 926 235 C 919.648193 232.580292 852 213 852 213 C 852 213 844 211 844 205 C 844 199 852 199 852 199 C 852 199 921.333496 199 958 199 C 974 199 988 217.000092 988 233 C 988 290.33313 988 385.000061 988 405 C 988 411 986 417 980 417 C 968 417 942 385 942 385 C 942 385 921.999878 417 888 417 Z M 1116 417 C 1072 417 1044 386.999908 1044 355 C 1044 315.772949 1065.029663 303.764343 1072 299 C 1079.171021 294.09845 1100.587769 285.379395 1112 283 C 1118.58667 281.626709 1162 271 1162 271 L 1162 247 C 1162 247 1160.251953 237.381683 1154 235 C 1147.648193 232.580292 1080 213 1080 213 C 1080 213 1072 211 1072 205 C 1072 199 1080 199 1080 199 C 1080 199 1149.333374 199 1186 199 C 1202 199 1216 217.000092 1216 233 C 1216 290.33313 1216 385.000061 1216 405 C 1216 411 1214 417 1208 417 C 1196 417 1170 385 1170 385 C 1170 385 1150 417 1116 417 Z M 106 416 C 89.541878 416.143188 78 399.999969 78 386 C 78 377.891602 78 96 78 84 C 78 68.000061 86.867348 52 106 52 C 131.999939 52 134 68 134 68 L 192 270 C 192 270 194.000031 280 202 280 C 211.999969 280 214 270 214 270 L 282 70 C 282 70 288.000061 50 316 50 C 343.999939 50 352 68.000061 352 84 C 352 189.33313 352 402 352 402 C 352 402 349.611481 416.182983 334 416 C 318.388519 415.817017 316 400 316 400 L 316 178 C 316 178 318 172 310 172 C 304 172 302 178 302 178 L 234 398 C 234 398 229.999969 416 220 416 C 212.000031 416 208 404 208 404 L 154 208 C 154 208 150 196 144 196 C 132.173492 196 132 210 132 210 C 132 210 132 376.000031 132 386 C 132 400.273438 122.956757 415.852478 106 416 Z M 494 383 C 518 383 524 363 524 357 C 524 353 524 307.000061 524 319 C 524 323 526 303 510 303 C 488.000092 303 476.315552 313.508911 472 319 C 466.815369 325.596924 460 335.000061 460 351 C 460 370.999939 472.000092 383 494 383 Z M 904 383 C 928 383 934 363 934 357 C 934 353 934 307.000061 934 319 C 934 323 936 303 920 303 C 898 303 886.315552 313.508911 882 319 C 876.815369 325.596924 870 335.000061 870 351 C 870 370.999939 882 383 904 383 Z M 1132 383 C 1156 383 1162 363 1162 357 C 1162 353 1162 307.000061 1162 319 C 1162 323 1164 303 1148 303 C 1126 303 1114.315552 313.508911 1110 319 C 1104.81543 325.596924 1098 335.000061 1098 351 C 1098 370.999939 1110 383 1132 383 Z"/>
</svg>
