<?xml version="1.0" encoding="UTF-8"?>
<!-- Generated by Pixelmator Pro 3.3.2 -->
<svg width="1290" height="144" viewBox="0 0 1290 144" xmlns="http://www.w3.org/2000/svg" xmlns:xlink="http://www.w3.org/1999/xlink">
    <path id="path1" fill="#2f4eb1" fill-rule="evenodd" stroke="none" d="M 921 52 C 920.11145 56.093185 925.090149 53.515709 923 59 C 921.014099 64.210747 915.099487 63.446342 912 69 C 908.900513 74.553658 911.758301 78.258438 909 80 C 903.616333 83.3992 904.909668 87.018112 905 91 C 905.063171 93.784996 907.376221 96.418457 913 99 C 918.859497 101.689743 927.075623 101.081512 936 97 C 944.924377 92.918488 941.94574 94.337914 947 96 C 953.409119 98.107635 951.736816 104.652115 945 110 C 942.232117 112.197235 939.007019 113.858559 936 116 C 932.379517 118.578331 928.590271 123.027908 925 124 C 920.926758 125.102859 912.420288 130.770233 907 131 C 902.001038 131.211914 894.670715 130.37645 889 132 C 883.329285 133.62355 876.621948 130.613022 876 133 C 875.364563 135.43869 875.981079 143.882935 884 144 C 891.965088 144.116272 921 144 921 144 C 921 144 969.251709 123.034386 978 117 C 984.641846 112.41861 999.791748 114.022171 1011 115 C 1014.099854 115.270439 1020.165344 130.756104 1021 134 C 1021.868774 137.376434 1019 144 1019 144 C 1019 144 1033.962036 144.226761 1035 144 C 1038.583862 143.216995 1037 122 1037 122 C 1037 122 1036.833984 112.611954 1040 112 C 1041.719482 111.667641 1067.191895 114.546501 1081 107 C 1083.361328 105.709473 1098.237061 117.391006 1103 120 C 1105.148071 121.176643 1097.707764 125.188255 1093 132 C 1088.292236 138.811752 1087 144 1087 144 L 1108 144 C 1108 144 1113.03125 136.257797 1119 134 C 1120.148315 133.565628 1126.836304 134.798599 1128 125 C 1129.02063 116.406128 1124.107544 112.440071 1123 107 C 1122.749023 105.767303 1120.470459 99.390732 1123 97 C 1127.307007 92.929298 1135.433228 85.654472 1137 80 C 1139.535767 70.848717 1138.142822 68.550194 1140 66 C 1141.225586 64.317123 1149.935669 72.591713 1166 74 C 1170.040161 74.354179 1177.698242 75.64357 1187 75 C 1197.489258 74.274277 1210.786011 69.923233 1217 70 C 1228.724609 70.144836 1242.707642 71.952721 1247 76 C 1251.292358 80.047279 1254.266602 82.066833 1259 85 C 1263.733398 87.933167 1266.380005 82.452972 1267 79 C 1267.619995 75.547028 1262.847656 65.555176 1254 63 C 1245.152344 60.444824 1237.613037 57.301262 1226 57 C 1209.516479 56.572388 1197.099121 60.081856 1178 61 C 1162.844116 61.728584 1126.652466 42.341125 1111 38 C 1096.193604 33.893539 1088.576172 36.143158 1066 40 C 1059.007446 41.194588 1052.528809 40.3106 1044 43 C 1038.314209 44.792938 1029.817993 49.743774 1025 50 C 1012.955078 50.640556 1007.636963 46.84906 1002 47 C 987.115784 47.39856 983.576538 53.35688 977 58 C 974.838318 59.526176 965.625916 55.394203 956 56 C 951.518188 56.282059 948.182556 57.133179 945 55 C 936.956421 49.608597 933.249695 49.506462 926 49 C 922.198181 48.734406 921.531555 49.5513 921 52 Z"/>
    <path id="path2" fill="#51a0d4" fill-opacity="0.503906" fill-rule="evenodd" stroke="none" d="M 776 89 C 784.973572 93.263367 794.938599 83.553207 809 88 C 823.061401 92.446808 830.933716 99.033234 837 107 C 843.335144 115.319878 844.460815 115.119659 854 115.999992 C 863.539185 116.880333 874.042908 110.883942 880 122 C 881.770447 125.303665 884.228027 124.060593 890 132 C 896.605835 141.08638 880.110779 134.749481 879 137 C 877.672974 139.688644 879.083557 144.082321 882 144 C 892.134888 143.713959 905.66571 143.845825 907 144 C 911.080994 144.471573 902.668945 130.887222 905 127 C 907.840454 122.263367 911.572449 126.287109 914 135 C 915.910461 141.856949 916.81012 144.021439 918 144 C 925.550842 143.863907 928 144 928 144 C 928 144 922.016235 129.230423 922 126 C 921.98584 123.179649 923.451172 114.555344 919 114.999992 C 914.548828 115.444641 910.692993 117.171829 907 117 C 905.577698 116.933823 904.294189 114.631485 906 111 C 907.162476 108.5252 906.965576 110.54248 912 111 C 917.034424 111.45752 922.601929 114.373489 926 116 C 931.486755 118.626266 928.103455 122.906578 930 127 C 931.896545 131.093414 933.955933 129.146866 932 137 C 930.044067 144.853119 933 144 933 144 L 953 144 C 953 144 952.970276 144.205658 953 133 C 953.029724 121.794342 952.740173 117.314484 959 113 C 965.259827 108.685509 978.606079 102.420471 984 96 C 990.095581 88.744324 985.613281 79.635506 989 81 C 997.226196 84.314293 1008.616516 96.004654 1029 105 C 1041.721069 110.613884 1054.861084 112.774719 1063 113.999992 C 1071.138916 115.225266 1088.264648 118.562729 1097 116 C 1100.864868 114.866165 1102.630249 107.075653 1102 105 C 1101.67395 103.926094 1097 102 1097 102 C 1097 102 1061.895264 101.602509 1044 93 C 1036.841919 89.55899 1025.215942 83.334396 1022 81 C 1009.886719 72.207191 985.09314 51.203362 968 45 C 935.853516 33.333542 896.087463 44.025505 888 47 C 879.92981 49.968132 852.349426 59.36026 843 59 C 828.970093 58.459389 795.340698 42.564018 786 41 C 776.659302 39.435982 788 49 788 49 C 788 49 788.185669 52.356178 785 54 C 774.818115 59.253891 773.774902 62.444397 772 69 C 770.766602 73.555618 774.045105 73.77784 772 75 C 769.954895 76.22216 768 79 768 79 C 768 79 767.026428 84.736633 776 89 Z"/>
    <path id="path3" fill="#7ec5e9" fill-opacity="0.597674" fill-rule="evenodd" stroke="none" d="M 568 51 C 565.280334 53.85582 567.28717 57.670456 569 60 C 571.337402 63.179008 584.589844 62.263908 587 62 C 594.871338 61.1381 609.694336 54.93605 613 58 C 616.305664 61.06395 619.048523 65.767014 621 78 C 622.951477 90.232986 630.499023 97.263855 632 102 C 633.578796 106.981735 642.251953 114.645294 647 114 C 650.791687 113.484688 659.804688 114.839859 663 112 C 666.195313 109.160141 659.13739 105.60524 657 105 C 654.86261 104.39476 648.930786 104.141907 649 99 C 649.075439 93.394028 656.093506 87.474518 660 88 C 663.906494 88.525482 672.613892 95.445175 681 98 C 695.533447 102.427597 748.495422 101.538116 759 103 C 769.504578 104.461884 779.778748 117.894844 795 119 C 810.221252 120.105156 820.045837 119.057327 821 120 C 822.610718 121.591301 819.726318 125.947823 816 130 C 810.387146 136.103668 799.427368 136.217392 798 137 C 796.075562 138.055161 796.826782 145.089569 799 144 C 801.173218 142.910431 829 144 829 144 C 829 144 841.04425 138.105209 841 133 C 840.95575 127.894791 841.607727 119.396706 843 114 C 844.010864 110.081741 848.984436 106.298569 845 99 C 843.02124 95.375374 828.467041 96.876297 825 93 C 820.78363 88.285942 816.778625 77.56076 819 76 C 821.360168 74.341728 848.214844 91.703751 863 97 C 874.147766 100.993271 894.47052 103.815155 902 102 C 905.920227 101.054939 927.399231 101.813538 938 98 C 942.543213 96.365623 946.688965 96.15519 947 90 C 947.197998 86.081619 918.33313 91.767914 894 89 C 864.20697 85.611023 824.263123 61.552635 815 53 C 804.191589 43.020622 768.644165 37.056511 758 36 C 748.083801 35.015747 702.760986 42.550644 690 41 C 677.239014 39.449356 667.378601 35.085899 651 31 C 610.527771 20.903564 608.18219 23.392235 603 21 C 592.307312 16.06398 583.825439 12.805054 582 16.000015 C 580.174561 19.194954 582.677368 20.756683 583 26 C 583.128723 28.09182 575.293335 31.939339 573 35 C 570.706665 38.060661 570.71283 48.151344 568 51 Z"/>
    <path id="path4" fill="#9ce0f5" fill-opacity="0.602271" fill-rule="evenodd" stroke="none" d="M 407 7 C 405.34491 8.856186 407.55838 11.138718 409 12 C 410.44162 12.861282 412.740326 13.786301 408 16 C 403.259674 18.213699 399 21 399 21 C 399 21 397.760681 23.379173 396 30 C 394.239319 36.620827 395.630432 32.926682 393 36 C 391.953827 37.222321 390 38 390 38 L 390 49 C 390 49 392.865509 53.000259 395 54 C 398.334198 55.561653 401.240326 54.636162 404 54 C 406.759674 53.363838 413.526581 51.558556 416 51 C 418.473419 50.441444 434.434967 50.147614 438 53 C 441.565033 55.852386 442.66272 58.655243 438 59 C 433.33728 59.344757 425.615631 60.76593 423 62 C 420.384369 63.23407 419.292206 63.288933 418 66 C 416.46524 69.219971 415.6026 75.348465 415 78 C 414.288391 81.131256 412.795288 84.633072 413 89 C 413.314148 95.701302 416.560699 94.487602 419 93 C 420.801819 91.901169 419.031677 89.53183 421 87 C 422.968323 84.46817 422.753052 76.260834 426 77 C 429.246948 77.739166 430.601654 73.680679 432 76 C 433.398346 78.319321 433.020233 80.162872 429 83 C 424.979767 85.837128 424.367554 87.264648 424 90 C 423.632446 92.735352 423.473083 94.202049 427 97 C 434.620239 103.045242 429.367859 102.128937 435 105 C 438.034119 106.546684 440.359894 106.536911 441 103 C 441.640106 99.463089 441.281219 101.144066 439 96 C 437.01535 91.524673 438.47876 88.013611 446 85 C 449.65274 83.536423 456.922241 82.599258 459 82 C 461.077759 81.400742 464.758118 81.947861 467 81 C 469.241882 80.052139 474.074921 77.080177 480 77 C 485.925079 76.919823 515.137207 90.793907 522 92 C 528.862793 93.206093 557.34845 94.234116 560 93 C 562.65155 91.765884 580.730103 91.529282 587 92 C 593.269897 92.470718 613.747864 100.063629 620 101 C 626.252136 101.936371 632 105 632 105 C 632 105 645.723267 119.374306 654 116 C 657.023438 114.767387 663.831116 113.723862 668 114 C 673.465637 114.362038 675.967346 114.350121 686 125 C 698.059326 137.801224 700.25293 137.440201 701 141 C 701.74707 144.559799 702 144 702 144 L 714 144 C 714 144 717.109192 148.625961 714 141 C 710.890808 133.374039 701.362305 128.636703 705 126 C 709.545227 122.705482 713.994995 134.122162 717 131 C 723.061768 124.701889 697.684265 106.561081 691 103 C 684.315735 99.438919 666.186829 83.047096 667 81 C 667.162659 80.590576 651.076721 70.944336 652 70 C 654.239441 67.709526 679.218384 84.021667 683 87 C 685.20697 88.738167 694.33551 92.313423 702 99 C 709.179871 105.263809 717.427979 109.094788 719 109 C 722.143982 108.810425 723.878906 108.555992 723 105 C 722.121094 101.444008 688.444458 70.107704 660 57 C 640.728394 48.119308 599.604065 43.477417 586 44 C 580.112976 44.226143 570.917114 38.681969 560 38 C 549.082886 37.318031 527 36 527 36 C 527 36 501.402618 24.133385 490 21 C 478.338135 17.79538 454 17 454 17 C 454 17 428.168335 14.682587 425 13 C 415.431915 7.918747 407.761353 6.146149 407 7 Z"/>
</svg>
