<?xml version="1.0" standalone="no"?>
<!DOCTYPE svg PUBLIC "-//W3C//DTD SVG 20010904//EN"
 "http://www.w3.org/TR/2001/REC-SVG-20010904/DTD/svg10.dtd">
<svg version="1.0" xmlns="http://www.w3.org/2000/svg"
 width="640.000000pt" height="640.000000pt" viewBox="0 0 640.000000 640.000000"
 preserveAspectRatio="xMidYMid meet">
<metadata>
Created by potrace 1.14, written by Peter Selinger 2001-2017
</metadata>
<g transform="translate(0.000000,640.000000) scale(0.100000,-0.100000)"
fill="#000000" stroke="none">
<path d="M965 5046 c-34 -51 2 -122 91 -179 21 -13 47 -34 58 -45 17 -20 17
-23 3 -46 -9 -14 -68 -50 -139 -86 -175 -89 -306 -167 -322 -193 -23 -35 -83
-217 -121 -366 -35 -133 -37 -137 -88 -189 -29 -29 -73 -65 -99 -80 l-48 -27
0 -215 0 -215 60 -72 c66 -78 132 -127 194 -144 89 -24 167 -13 486 68 l305
78 270 -1 c288 0 408 -13 518 -54 136 -51 234 -209 156 -250 -11 -6 -102 -22
-202 -35 -348 -45 -548 -107 -634 -197 -45 -47 -86 -163 -127 -366 -19 -93
-51 -231 -71 -307 -45 -177 -55 -299 -31 -389 23 -82 52 -111 111 -110 53 1
133 45 139 77 3 12 7 48 11 81 4 40 16 78 40 120 19 35 45 106 60 166 50 201
69 230 153 230 44 0 67 7 122 37 61 33 70 36 85 23 42 -35 57 -119 31 -168
-17 -33 -83 -96 -151 -145 -125 -89 -172 -166 -182 -296 -8 -109 12 -149 121
-240 112 -95 160 -148 186 -204 25 -53 49 -73 141 -117 67 -31 133 -39 170
-20 27 15 49 62 60 131 l9 59 -55 113 c-78 157 -87 227 -42 313 37 71 183 166
327 213 106 35 496 109 626 119 118 9 124 11 257 71 182 81 274 106 402 105
95 0 109 -3 265 -56 91 -31 385 -144 653 -252 545 -219 686 -269 799 -285 92
-13 446 -37 676 -46 l162 -7 0 1116 0 1116 -47 0 c-27 0 -181 9 -344 19 l-297
19 -148 67 c-646 293 -1160 492 -1417 549 -244 54 -672 101 -1152 126 -361 19
-1010 92 -1210 137 -38 9 -113 37 -165 63 -206 103 -463 194 -577 206 -58 6
-62 5 -78 -20z"/>
</g>
</svg>
